<svg xmlns="http://www.w3.org/2000/svg" xmlns:xlink="http://www.w3.org/1999/xlink" width="1366" zoomAndPan="magnify" viewBox="0 0 1024.5 300.749996" height="768" preserveAspectRatio="xMidYMid meet" version="1.0"><defs><g/><clipPath id="36b6bcda42"><path d="M 78.582031 30.101562 L 204.539062 30.101562 L 204.539062 285.015625 L 78.582031 285.015625 Z M 78.582031 30.101562 " clip-rule="nonzero"/></clipPath></defs><g clip-path="url(#36b6bcda42)"><path fill="#e2a178" d="M 202.164062 170.554688 C 202.222656 170.5 202.277344 170.441406 202.390625 170.386719 C 202.621094 170.214844 202.789062 169.988281 202.960938 169.816406 C 203.074219 169.703125 203.132812 169.589844 203.246094 169.476562 C 203.417969 169.25 203.585938 169.019531 203.703125 168.792969 C 203.757812 168.679688 203.816406 168.566406 203.871094 168.453125 C 203.984375 168.167969 204.101562 167.824219 204.214844 167.484375 C 204.214844 167.429688 204.269531 167.3125 204.269531 167.257812 C 204.328125 166.859375 204.382812 166.460938 204.382812 166.0625 C 204.382812 166.0625 204.382812 166.003906 204.382812 166.003906 C 204.382812 166.003906 204.382812 166.003906 204.382812 165.949219 C 204.382812 165.835938 204.328125 165.777344 204.328125 165.664062 C 204.328125 165.324219 204.269531 165.039062 204.214844 164.695312 C 204.15625 164.582031 204.15625 164.414062 204.101562 164.300781 C 204.042969 164.015625 203.929688 163.785156 203.816406 163.503906 C 203.757812 163.390625 203.703125 163.21875 203.585938 163.105469 C 203.472656 162.875 203.304688 162.648438 203.132812 162.421875 C 203.019531 162.308594 202.960938 162.195312 202.847656 162.082031 C 202.621094 161.851562 202.390625 161.683594 202.164062 161.453125 C 202.105469 161.398438 202.050781 161.339844 201.992188 161.285156 L 122.121094 103.714844 L 122.121094 41.707031 L 198.632812 41.707031 C 201.824219 41.707031 204.441406 39.089844 204.441406 35.902344 C 204.441406 32.71875 201.824219 30.101562 198.632812 30.101562 L 84.488281 30.101562 C 81.300781 30.101562 78.679688 32.71875 78.679688 35.902344 L 78.679688 279.210938 C 78.679688 282.398438 81.300781 285.015625 84.488281 285.015625 L 198.632812 285.015625 C 201.824219 285.015625 204.441406 282.398438 204.441406 279.210938 C 204.441406 276.027344 201.824219 273.410156 198.632812 273.410156 L 122.121094 273.410156 L 122.121094 231.996094 Z M 90.296875 95.125 L 110.503906 109.6875 L 110.503906 160.144531 L 90.296875 160.144531 Z M 90.296875 171.695312 L 110.503906 171.695312 L 110.503906 226.304688 L 90.296875 241.835938 Z M 122.121094 171.695312 L 181.613281 171.695312 L 122.121094 217.375 Z M 180.644531 160.144531 L 122.121094 160.144531 L 122.121094 118.050781 Z M 110.503906 41.707031 L 110.503906 95.410156 L 90.296875 80.84375 L 90.296875 41.707031 Z M 110.503906 273.410156 L 90.296875 273.410156 L 90.296875 256.457031 L 110.503906 240.925781 Z M 110.503906 273.410156 " fill-opacity="1" fill-rule="nonzero"/></g><g fill="#f1f0e9" fill-opacity="1"><g transform="translate(220.690416, 225.625093)"><g><path d="M 95.21875 -124.578125 L 115.625 -124.578125 L 115.625 0 L 95.21875 0 L 33.828125 -92.890625 L 33.828125 0 L 13.421875 0 L 13.421875 -124.578125 L 33.828125 -124.578125 L 95.21875 -31.859375 Z M 95.21875 -124.578125 "/></g></g></g><g fill="#f1f0e9" fill-opacity="1"><g transform="translate(349.727383, 225.625093)"><g><path d="M 50.296875 0 L 3.40625 -124.390625 L 25.234375 -124.390625 L 61.921875 -21.125 L 98.984375 -124.390625 L 120.640625 -124.390625 L 73.921875 0 Z M 50.296875 0 "/></g></g></g><g fill="#f1f0e9" fill-opacity="1"><g transform="translate(473.932195, 225.625093)"><g><path d="M 13.421875 0 L 13.421875 -124.390625 L 33.828125 -124.390625 L 33.828125 0 Z M 13.421875 0 "/></g></g></g><g fill="#f1f0e9" fill-opacity="1"><g transform="translate(521.180149, 225.625093)"><g><path d="M 52.078125 -109.359375 C 45.992188 -109.359375 41.039062 -107.804688 37.21875 -104.703125 C 33.40625 -101.597656 31.5 -97.09375 31.5 -91.1875 C 31.5 -85.28125 33.765625 -80.773438 38.296875 -77.671875 C 42.835938 -74.578125 48.328125 -72.3125 54.765625 -70.875 C 61.210938 -69.445312 67.65625 -67.804688 74.09375 -65.953125 C 80.539062 -64.109375 86.03125 -60.675781 90.5625 -55.65625 C 95.101562 -50.644531 97.375 -43.546875 97.375 -34.359375 C 97.375 -25.171875 93.492188 -16.9375 85.734375 -9.65625 C 77.972656 -2.382812 67.585938 1.25 54.578125 1.25 C 41.578125 1.25 31.019531 -1.789062 22.90625 -7.875 C 14.789062 -13.957031 10.734375 -22.367188 10.734375 -33.109375 L 32.578125 -33.109375 C 33.054688 -27.617188 35.082031 -23.265625 38.65625 -20.046875 C 42.238281 -16.828125 47.488281 -15.21875 54.40625 -15.21875 C 61.332031 -15.21875 66.789062 -17.003906 70.78125 -20.578125 C 74.78125 -24.160156 76.78125 -28.394531 76.78125 -33.28125 C 76.78125 -38.175781 75.554688 -41.992188 73.109375 -44.734375 C 70.671875 -47.484375 67.507812 -49.546875 63.625 -50.921875 C 59.75 -52.296875 55.484375 -53.519531 50.828125 -54.59375 C 46.171875 -55.664062 41.488281 -56.914062 36.78125 -58.34375 C 32.070312 -59.78125 27.773438 -61.628906 23.890625 -63.890625 C 20.015625 -66.160156 16.851562 -69.472656 14.40625 -73.828125 C 11.957031 -78.179688 10.734375 -83.519531 10.734375 -89.84375 C 10.734375 -100.707031 14.640625 -109.445312 22.453125 -116.0625 C 30.273438 -122.6875 40.421875 -126 52.890625 -126 C 65.359375 -126 75.320312 -123.132812 82.78125 -117.40625 C 90.238281 -111.6875 94.382812 -103.394531 95.21875 -92.53125 L 72.671875 -92.53125 C 72.191406 -97.300781 70.160156 -101.296875 66.578125 -104.515625 C 63.003906 -107.742188 58.171875 -109.359375 52.078125 -109.359375 Z M 52.078125 -109.359375 "/></g></g></g><g fill="#f1f0e9" fill-opacity="1"><g transform="translate(629.277685, 225.625093)"><g><path d="M 13.421875 0 L 13.421875 -124.390625 L 33.828125 -124.390625 L 33.828125 0 Z M 13.421875 0 "/></g></g></g><g fill="#f1f0e9" fill-opacity="1"><g transform="translate(676.525639, 225.625093)"><g><path d="M 70.15625 -17.1875 C 82.6875 -17.1875 92.921875 -21.332031 100.859375 -29.625 C 108.796875 -37.914062 112.765625 -48.832031 112.765625 -62.375 C 112.765625 -75.914062 108.796875 -86.800781 100.859375 -95.03125 C 92.921875 -103.269531 82.6875 -107.390625 70.15625 -107.390625 C 57.632812 -107.390625 47.40625 -103.269531 39.46875 -95.03125 C 31.53125 -86.800781 27.5625 -75.914062 27.5625 -62.375 C 27.5625 -48.832031 31.53125 -37.914062 39.46875 -29.625 C 47.40625 -21.332031 57.632812 -17.1875 70.15625 -17.1875 Z M 70.25 1.25 C 52.414062 1.25 37.351562 -4.742188 25.0625 -16.734375 C 12.769531 -28.722656 6.625 -43.9375 6.625 -62.375 C 6.625 -80.8125 12.769531 -96.023438 25.0625 -108.015625 C 37.351562 -120.003906 52.414062 -126 70.25 -126 C 88.09375 -126 103.128906 -120.003906 115.359375 -108.015625 C 127.585938 -96.023438 133.703125 -80.8125 133.703125 -62.375 C 133.703125 -43.9375 127.585938 -28.722656 115.359375 -16.734375 C 103.128906 -4.742188 88.09375 1.25 70.25 1.25 Z M 70.25 1.25 "/></g></g></g><g fill="#f1f0e9" fill-opacity="1"><g transform="translate(816.837673, 225.625093)"><g><path d="M 95.21875 -124.578125 L 115.625 -124.578125 L 115.625 0 L 95.21875 0 L 33.828125 -92.890625 L 33.828125 0 L 13.421875 0 L 13.421875 -124.578125 L 33.828125 -124.578125 L 95.21875 -31.859375 Z M 95.21875 -124.578125 "/></g></g></g></svg>