<svg xmlns="http://www.w3.org/2000/svg" xmlns:xlink="http://www.w3.org/1999/xlink" width="500" zoomAndPan="magnify" viewBox="0 0 375 374.999991" height="500" preserveAspectRatio="xMidYMid meet" version="1.0"><defs><g/><clipPath id="0889a6f342"><path d="M 27.765625 144.929688 L 75.765625 144.929688 L 75.765625 242.429688 L 27.765625 242.429688 Z M 27.765625 144.929688 " clip-rule="nonzero"/></clipPath></defs><g clip-path="url(#0889a6f342)"><path fill="#ff9e00" d="M 74.863281 198.652344 C 74.886719 198.632812 74.90625 198.609375 74.949219 198.585938 C 75.035156 198.523438 75.101562 198.433594 75.167969 198.371094 C 75.210938 198.328125 75.230469 198.28125 75.273438 198.238281 C 75.339844 198.152344 75.40625 198.066406 75.449219 197.976562 C 75.46875 197.933594 75.492188 197.890625 75.515625 197.847656 C 75.558594 197.738281 75.601562 197.609375 75.644531 197.476562 C 75.644531 197.457031 75.664062 197.414062 75.664062 197.390625 C 75.6875 197.238281 75.710938 197.085938 75.710938 196.933594 C 75.710938 196.933594 75.710938 196.914062 75.710938 196.914062 C 75.710938 196.914062 75.710938 196.914062 75.710938 196.890625 C 75.710938 196.847656 75.6875 196.824219 75.6875 196.78125 C 75.6875 196.652344 75.664062 196.542969 75.644531 196.410156 C 75.621094 196.367188 75.621094 196.304688 75.601562 196.257812 C 75.578125 196.152344 75.535156 196.0625 75.492188 195.953125 C 75.46875 195.910156 75.449219 195.847656 75.40625 195.800781 C 75.363281 195.714844 75.296875 195.628906 75.230469 195.542969 C 75.1875 195.496094 75.167969 195.453125 75.125 195.410156 C 75.035156 195.324219 74.949219 195.257812 74.863281 195.171875 C 74.839844 195.148438 74.820312 195.128906 74.796875 195.105469 L 44.355469 173.085938 L 44.355469 149.371094 L 73.519531 149.371094 C 74.734375 149.371094 75.730469 148.367188 75.730469 147.152344 C 75.730469 145.933594 74.734375 144.929688 73.519531 144.929688 L 30.015625 144.929688 C 28.800781 144.929688 27.800781 145.933594 27.800781 147.152344 L 27.800781 240.210938 C 27.800781 241.429688 28.800781 242.429688 30.015625 242.429688 L 73.519531 242.429688 C 74.734375 242.429688 75.730469 241.429688 75.730469 240.210938 C 75.730469 238.992188 74.734375 237.992188 73.519531 237.992188 L 44.355469 237.992188 L 44.355469 222.152344 Z M 32.226562 169.800781 L 39.929688 175.371094 L 39.929688 194.671875 L 32.226562 194.671875 Z M 32.226562 199.089844 L 39.929688 199.089844 L 39.929688 219.976562 L 32.226562 225.917969 Z M 44.355469 199.089844 L 67.03125 199.089844 L 44.355469 216.558594 Z M 66.660156 194.671875 L 44.355469 194.671875 L 44.355469 178.570312 Z M 39.929688 149.371094 L 39.929688 169.910156 L 32.226562 164.339844 L 32.226562 149.371094 Z M 39.929688 237.992188 L 32.226562 237.992188 L 32.226562 231.507812 L 39.929688 225.566406 Z M 39.929688 237.992188 " fill-opacity="1" fill-rule="nonzero"/></g><g fill="#f6f5f2" fill-opacity="1"><g transform="translate(82.270309, 219.922336)"><g><path d="M 36.515625 -47.78125 L 44.34375 -47.78125 L 44.34375 0 L 36.515625 0 L 12.96875 -35.625 L 12.96875 0 L 5.140625 0 L 5.140625 -47.78125 L 12.96875 -47.78125 L 36.515625 -12.21875 Z M 36.515625 -47.78125 "/></g></g></g><g fill="#f6f5f2" fill-opacity="1"><g transform="translate(131.761268, 219.922336)"><g><path d="M 19.28125 0 L 1.296875 -47.703125 L 9.671875 -47.703125 L 23.75 -8.09375 L 37.953125 -47.703125 L 46.265625 -47.703125 L 28.34375 0 Z M 19.28125 0 "/></g></g></g><g fill="#f6f5f2" fill-opacity="1"><g transform="translate(179.398898, 219.922336)"><g><path d="M 5.140625 0 L 5.140625 -47.703125 L 12.96875 -47.703125 L 12.96875 0 Z M 5.140625 0 "/></g></g></g><g fill="#f6f5f2" fill-opacity="1"><g transform="translate(197.520422, 219.922336)"><g><path d="M 19.96875 -41.9375 C 17.632812 -41.9375 15.734375 -41.34375 14.265625 -40.15625 C 12.804688 -38.96875 12.078125 -37.238281 12.078125 -34.96875 C 12.078125 -32.707031 12.945312 -30.976562 14.6875 -29.78125 C 16.425781 -28.59375 18.53125 -27.722656 21 -27.171875 C 23.46875 -26.628906 25.9375 -26.003906 28.40625 -25.296875 C 30.882812 -24.585938 32.992188 -23.269531 34.734375 -21.34375 C 36.472656 -19.425781 37.34375 -16.703125 37.34375 -13.171875 C 37.34375 -9.648438 35.851562 -6.492188 32.875 -3.703125 C 29.90625 -0.910156 25.925781 0.484375 20.9375 0.484375 C 15.945312 0.484375 11.894531 -0.679688 8.78125 -3.015625 C 5.675781 -5.347656 4.125 -8.578125 4.125 -12.703125 L 12.5 -12.703125 C 12.675781 -10.597656 13.453125 -8.925781 14.828125 -7.6875 C 16.203125 -6.445312 18.210938 -5.828125 20.859375 -5.828125 C 23.515625 -5.828125 25.609375 -6.515625 27.140625 -7.890625 C 28.679688 -9.265625 29.453125 -10.890625 29.453125 -12.765625 C 29.453125 -14.640625 28.976562 -16.101562 28.03125 -17.15625 C 27.09375 -18.207031 25.878906 -18.992188 24.390625 -19.515625 C 22.910156 -20.046875 21.273438 -20.515625 19.484375 -20.921875 C 17.703125 -21.335938 15.90625 -21.820312 14.09375 -22.375 C 12.289062 -22.925781 10.644531 -23.632812 9.15625 -24.5 C 7.675781 -25.375 6.46875 -26.644531 5.53125 -28.3125 C 4.59375 -29.976562 4.125 -32.023438 4.125 -34.453125 C 4.125 -38.617188 5.617188 -41.972656 8.609375 -44.515625 C 11.609375 -47.054688 15.5 -48.328125 20.28125 -48.328125 C 25.0625 -48.328125 28.878906 -47.226562 31.734375 -45.03125 C 34.597656 -42.832031 36.191406 -39.648438 36.515625 -35.484375 L 27.875 -35.484375 C 27.6875 -37.316406 26.90625 -38.847656 25.53125 -40.078125 C 24.15625 -41.316406 22.300781 -41.9375 19.96875 -41.9375 Z M 19.96875 -41.9375 "/></g></g></g><g fill="#f6f5f2" fill-opacity="1"><g transform="translate(238.980253, 219.922336)"><g><path d="M 5.140625 0 L 5.140625 -47.703125 L 12.96875 -47.703125 L 12.96875 0 Z M 5.140625 0 "/></g></g></g><g fill="#f6f5f2" fill-opacity="1"><g transform="translate(257.101777, 219.922336)"><g><path d="M 26.90625 -6.59375 C 31.707031 -6.59375 35.628906 -8.179688 38.671875 -11.359375 C 41.722656 -14.535156 43.25 -18.722656 43.25 -23.921875 C 43.25 -29.117188 41.722656 -33.296875 38.671875 -36.453125 C 35.628906 -39.609375 31.707031 -41.1875 26.90625 -41.1875 C 22.101562 -41.1875 18.179688 -39.609375 15.140625 -36.453125 C 12.097656 -33.296875 10.578125 -29.117188 10.578125 -23.921875 C 10.578125 -18.722656 12.097656 -14.535156 15.140625 -11.359375 C 18.179688 -8.179688 22.101562 -6.59375 26.90625 -6.59375 Z M 26.9375 0.484375 C 20.101562 0.484375 14.328125 -1.8125 9.609375 -6.40625 C 4.898438 -11.007812 2.546875 -16.847656 2.546875 -23.921875 C 2.546875 -30.992188 4.898438 -36.828125 9.609375 -41.421875 C 14.328125 -46.023438 20.101562 -48.328125 26.9375 -48.328125 C 33.78125 -48.328125 39.546875 -46.023438 44.234375 -41.421875 C 48.929688 -36.828125 51.28125 -30.992188 51.28125 -23.921875 C 51.28125 -16.847656 48.929688 -11.007812 44.234375 -6.40625 C 39.546875 -1.8125 33.78125 0.484375 26.9375 0.484375 Z M 26.9375 0.484375 "/></g></g></g><g fill="#f6f5f2" fill-opacity="1"><g transform="translate(310.917186, 219.922336)"><g><path d="M 36.515625 -47.78125 L 44.34375 -47.78125 L 44.34375 0 L 36.515625 0 L 12.96875 -35.625 L 12.96875 0 L 5.140625 0 L 5.140625 -47.78125 L 12.96875 -47.78125 L 36.515625 -12.21875 Z M 36.515625 -47.78125 "/></g></g></g></svg>