<svg xmlns="http://www.w3.org/2000/svg" xmlns:xlink="http://www.w3.org/1999/xlink" width="1366" zoomAndPan="magnify" viewBox="0 0 1024.5 300.749996" height="768" preserveAspectRatio="xMidYMid meet" version="1.0"><defs><g/><clipPath id="2608de9a05"><path d="M 78.582031 23.222656 L 204.539062 23.222656 L 204.539062 278.136719 L 78.582031 278.136719 Z M 78.582031 23.222656 " clip-rule="nonzero"/></clipPath></defs><g clip-path="url(#2608de9a05)"><path fill="#ff9e00" d="M 202.164062 163.679688 C 202.222656 163.621094 202.277344 163.5625 202.390625 163.507812 C 202.621094 163.335938 202.789062 163.109375 202.960938 162.9375 C 203.074219 162.824219 203.132812 162.710938 203.246094 162.597656 C 203.417969 162.371094 203.585938 162.140625 203.703125 161.914062 C 203.757812 161.800781 203.816406 161.6875 203.871094 161.574219 C 203.984375 161.289062 204.101562 160.949219 204.214844 160.605469 C 204.214844 160.550781 204.269531 160.433594 204.269531 160.378906 C 204.328125 159.980469 204.382812 159.582031 204.382812 159.183594 C 204.382812 159.183594 204.382812 159.128906 204.382812 159.128906 C 204.382812 159.128906 204.382812 159.128906 204.382812 159.070312 C 204.382812 158.957031 204.328125 158.898438 204.328125 158.785156 C 204.328125 158.445312 204.269531 158.160156 204.214844 157.820312 C 204.15625 157.703125 204.15625 157.535156 204.101562 157.421875 C 204.042969 157.136719 203.929688 156.910156 203.816406 156.625 C 203.757812 156.511719 203.703125 156.339844 203.585938 156.226562 C 203.472656 156 203.304688 155.769531 203.132812 155.542969 C 203.019531 155.429688 202.960938 155.316406 202.847656 155.203125 C 202.621094 154.972656 202.390625 154.804688 202.164062 154.574219 C 202.105469 154.519531 202.050781 154.460938 201.992188 154.40625 L 122.121094 96.835938 L 122.121094 34.828125 L 198.632812 34.828125 C 201.824219 34.828125 204.441406 32.210938 204.441406 29.027344 C 204.441406 25.839844 201.824219 23.222656 198.632812 23.222656 L 84.488281 23.222656 C 81.300781 23.222656 78.679688 25.839844 78.679688 29.027344 L 78.679688 272.332031 C 78.679688 275.519531 81.300781 278.136719 84.488281 278.136719 L 198.632812 278.136719 C 201.824219 278.136719 204.441406 275.519531 204.441406 272.332031 C 204.441406 269.148438 201.824219 266.53125 198.632812 266.53125 L 122.121094 266.53125 L 122.121094 225.117188 Z M 90.296875 88.246094 L 110.503906 102.808594 L 110.503906 153.269531 L 90.296875 153.269531 Z M 90.296875 164.816406 L 110.503906 164.816406 L 110.503906 219.429688 L 90.296875 234.957031 Z M 122.121094 164.816406 L 181.613281 164.816406 L 122.121094 210.496094 Z M 180.644531 153.269531 L 122.121094 153.269531 L 122.121094 111.171875 Z M 110.503906 34.828125 L 110.503906 88.53125 L 90.296875 73.964844 L 90.296875 34.828125 Z M 110.503906 266.53125 L 90.296875 266.53125 L 90.296875 249.578125 L 110.503906 234.046875 Z M 110.503906 266.53125 " fill-opacity="1" fill-rule="nonzero"/></g><g fill="#f6f5f2" fill-opacity="1"><g transform="translate(220.690416, 218.746579)"><g><path d="M 95.21875 -124.578125 L 115.625 -124.578125 L 115.625 0 L 95.21875 0 L 33.828125 -92.890625 L 33.828125 0 L 13.421875 0 L 13.421875 -124.578125 L 33.828125 -124.578125 L 95.21875 -31.859375 Z M 95.21875 -124.578125 "/></g></g></g><g fill="#f6f5f2" fill-opacity="1"><g transform="translate(349.727383, 218.746579)"><g><path d="M 50.296875 0 L 3.40625 -124.390625 L 25.234375 -124.390625 L 61.921875 -21.125 L 98.984375 -124.390625 L 120.640625 -124.390625 L 73.921875 0 Z M 50.296875 0 "/></g></g></g><g fill="#f6f5f2" fill-opacity="1"><g transform="translate(473.932195, 218.746579)"><g><path d="M 13.421875 0 L 13.421875 -124.390625 L 33.828125 -124.390625 L 33.828125 0 Z M 13.421875 0 "/></g></g></g><g fill="#f6f5f2" fill-opacity="1"><g transform="translate(521.180149, 218.746579)"><g><path d="M 52.078125 -109.359375 C 45.992188 -109.359375 41.039062 -107.804688 37.21875 -104.703125 C 33.40625 -101.597656 31.5 -97.09375 31.5 -91.1875 C 31.5 -85.28125 33.765625 -80.773438 38.296875 -77.671875 C 42.835938 -74.578125 48.328125 -72.3125 54.765625 -70.875 C 61.210938 -69.445312 67.65625 -67.804688 74.09375 -65.953125 C 80.539062 -64.109375 86.03125 -60.675781 90.5625 -55.65625 C 95.101562 -50.644531 97.375 -43.546875 97.375 -34.359375 C 97.375 -25.171875 93.492188 -16.9375 85.734375 -9.65625 C 77.972656 -2.382812 67.585938 1.25 54.578125 1.25 C 41.578125 1.25 31.019531 -1.789062 22.90625 -7.875 C 14.789062 -13.957031 10.734375 -22.367188 10.734375 -33.109375 L 32.578125 -33.109375 C 33.054688 -27.617188 35.082031 -23.265625 38.65625 -20.046875 C 42.238281 -16.828125 47.488281 -15.21875 54.40625 -15.21875 C 61.332031 -15.21875 66.789062 -17.003906 70.78125 -20.578125 C 74.78125 -24.160156 76.78125 -28.394531 76.78125 -33.28125 C 76.78125 -38.175781 75.554688 -41.992188 73.109375 -44.734375 C 70.671875 -47.484375 67.507812 -49.546875 63.625 -50.921875 C 59.75 -52.296875 55.484375 -53.519531 50.828125 -54.59375 C 46.171875 -55.664062 41.488281 -56.914062 36.78125 -58.34375 C 32.070312 -59.78125 27.773438 -61.628906 23.890625 -63.890625 C 20.015625 -66.160156 16.851562 -69.472656 14.40625 -73.828125 C 11.957031 -78.179688 10.734375 -83.519531 10.734375 -89.84375 C 10.734375 -100.707031 14.640625 -109.445312 22.453125 -116.0625 C 30.273438 -122.6875 40.421875 -126 52.890625 -126 C 65.359375 -126 75.320312 -123.132812 82.78125 -117.40625 C 90.238281 -111.6875 94.382812 -103.394531 95.21875 -92.53125 L 72.671875 -92.53125 C 72.191406 -97.300781 70.160156 -101.296875 66.578125 -104.515625 C 63.003906 -107.742188 58.171875 -109.359375 52.078125 -109.359375 Z M 52.078125 -109.359375 "/></g></g></g><g fill="#f6f5f2" fill-opacity="1"><g transform="translate(629.277685, 218.746579)"><g><path d="M 13.421875 0 L 13.421875 -124.390625 L 33.828125 -124.390625 L 33.828125 0 Z M 13.421875 0 "/></g></g></g><g fill="#f6f5f2" fill-opacity="1"><g transform="translate(676.525639, 218.746579)"><g><path d="M 70.15625 -17.1875 C 82.6875 -17.1875 92.921875 -21.332031 100.859375 -29.625 C 108.796875 -37.914062 112.765625 -48.832031 112.765625 -62.375 C 112.765625 -75.914062 108.796875 -86.800781 100.859375 -95.03125 C 92.921875 -103.269531 82.6875 -107.390625 70.15625 -107.390625 C 57.632812 -107.390625 47.40625 -103.269531 39.46875 -95.03125 C 31.53125 -86.800781 27.5625 -75.914062 27.5625 -62.375 C 27.5625 -48.832031 31.53125 -37.914062 39.46875 -29.625 C 47.40625 -21.332031 57.632812 -17.1875 70.15625 -17.1875 Z M 70.25 1.25 C 52.414062 1.25 37.351562 -4.742188 25.0625 -16.734375 C 12.769531 -28.722656 6.625 -43.9375 6.625 -62.375 C 6.625 -80.8125 12.769531 -96.023438 25.0625 -108.015625 C 37.351562 -120.003906 52.414062 -126 70.25 -126 C 88.09375 -126 103.128906 -120.003906 115.359375 -108.015625 C 127.585938 -96.023438 133.703125 -80.8125 133.703125 -62.375 C 133.703125 -43.9375 127.585938 -28.722656 115.359375 -16.734375 C 103.128906 -4.742188 88.09375 1.25 70.25 1.25 Z M 70.25 1.25 "/></g></g></g><g fill="#f6f5f2" fill-opacity="1"><g transform="translate(816.837673, 218.746579)"><g><path d="M 95.21875 -124.578125 L 115.625 -124.578125 L 115.625 0 L 95.21875 0 L 33.828125 -92.890625 L 33.828125 0 L 13.421875 0 L 13.421875 -124.578125 L 33.828125 -124.578125 L 95.21875 -31.859375 Z M 95.21875 -124.578125 "/></g></g></g></svg>