<svg xmlns="http://www.w3.org/2000/svg" version="1.1" xmlns:xlink="http://www.w3.org/1999/xlink" xmlns:svgjs="http://svgjs.dev/svgjs" width="1440" height="560" preserveAspectRatio="none" viewBox="0 0 1440 560"><g mask="url(&quot;#SvgjsMask1947&quot;)" fill="none"><rect width="1440" height="560" x="0" y="0" fill="rgba(25, 25, 35, 1)"></rect><path d="M1424.4 77.08a5.6 5.6 0 1 0-1.16-11.14 5.6 5.6 0 1 0 1.16 11.14zM1422.74 61.16a5.6 5.6 0 1 0-1.16-11.14 5.6 5.6 0 1 0 1.16 11.14zM1421.08 45.25a5.6 5.6 0 1 0-1.16-11.14 5.6 5.6 0 1 0 1.16 11.14zM1419.42 29.34a5.6 5.6 0 1 0-1.16-11.14 5.6 5.6 0 1 0 1.16 11.14zM1443.64 107.24a5.6 5.6 0 1 0-1.16-11.14 5.6 5.6 0 1 0 1.16 11.14zM1441.98 91.33a5.6 5.6 0 1 0-1.16-11.14 5.6 5.6 0 1 0 1.16 11.14zM1440.32 75.41a5.6 5.6 0 1 0-1.16-11.13 5.6 5.6 0 1 0 1.16 11.13zM1438.66 59.5a5.6 5.6 0 1 0-1.17-11.14 5.6 5.6 0 1 0 1.17 11.14zM1462.88 137.41a5.6 5.6 0 1 0-1.17-11.14 5.6 5.6 0 1 0 1.17 11.14zM1461.22 121.49a5.6 5.6 0 1 0-1.17-11.14 5.6 5.6 0 1 0 1.17 11.14zM1459.55 105.58a5.6 5.6 0 1 0-1.16-11.14 5.6 5.6 0 1 0 1.16 11.14zM1457.89 89.67a5.6 5.6 0 1 0-1.16-11.14 5.6 5.6 0 1 0 1.16 11.14z" stroke="rgba(239, 229, 220, 1)" stroke-width="1.66" stroke-dasharray="3, 3"></path><rect width="330.72" height="330.72" clip-path="url(&quot;#SvgjsClipPath1948&quot;)" x="-153.71" y="197.47" fill="url(&quot;#SvgjsPattern1949&quot;)" transform="rotate(132.05, 11.65, 362.83)"></rect><rect width="168" height="168" clip-path="url(&quot;#SvgjsClipPath1950&quot;)" x="1306.73" y="398.07" fill="url(&quot;#SvgjsPattern1951&quot;)" transform="rotate(291.55, 1390.73, 482.07)"></rect><circle r="46.666666666666664" cx="891.71" cy="459.95" fill="rgba(131, 92, 73, 1)"></circle><path d="M490.27 159.99L502.65 156.72 508.56 168.09 520.94 164.82 526.84 176.18 539.23 172.92 545.13 184.28M487.03 167.31L499.41 164.04 505.32 175.4 517.7 172.14 523.6 183.5 535.99 180.23 541.89 191.6M483.79 174.62L496.17 171.35 502.08 182.72 514.46 179.45 520.37 190.81 532.75 187.55 538.65 198.91" stroke="rgba(239, 229, 220, 1)" stroke-width="1.68" stroke-dasharray="2, 2"></path><rect width="108" height="108" clip-path="url(&quot;#SvgjsClipPath1952&quot;)" x="238.88" y="109.04" fill="url(&quot;#SvgjsPattern1953&quot;)" transform="rotate(312.73, 292.88, 163.04)"></rect><circle r="46.666666666666664" cx="754.87" cy="83.24" stroke="rgba(239, 229, 220, 1)" stroke-width="1.71"></circle><rect width="85.60000000000001" height="85.60000000000001" clip-path="url(&quot;#SvgjsClipPath1954&quot;)" x="1036.56" y="66.9" fill="url(&quot;#SvgjsPattern1955&quot;)" transform="rotate(122.72, 1079.36, 109.7)"></rect><rect width="131.4" height="131.4" clip-path="url(&quot;#SvgjsClipPath1956&quot;)" x="1125.62" y="-50.32" fill="url(&quot;#SvgjsPattern1957&quot;)" transform="rotate(132, 1191.32, 15.38)"></rect><rect width="109.4" height="109.4" clip-path="url(&quot;#SvgjsClipPath1958&quot;)" x="163.73" y="62.78" fill="url(&quot;#SvgjsPattern1959&quot;)" transform="rotate(16.68, 218.43, 117.48)"></rect><rect width="228.79999999999998" height="228.79999999999998" clip-path="url(&quot;#SvgjsClipPath1960&quot;)" x="1021.06" y="263.33" fill="url(&quot;#SvgjsPattern1961&quot;)" transform="rotate(54.03, 1135.46, 377.73)"></rect><path d="M971.93 30.98L981.05 21.99 991.82 28.92 1000.94 19.93 1011.71 26.85 1020.84 17.86 1031.61 24.79M972.75 38.94L981.87 29.95 992.65 36.87 1001.77 27.88 1012.54 34.81 1021.66 25.82 1032.43 32.75M973.58 46.89L982.7 37.9 993.47 44.83 1002.59 35.84 1013.36 42.77 1022.49 33.78 1033.26 40.71" stroke="rgba(239, 229, 220, 1)" stroke-width="1.61" stroke-dasharray="4, 4"></path></g><defs><mask id="SvgjsMask1947"><rect width="1440" height="560" fill="#ffffff"></rect></mask><pattern x="0" y="0" width="6.36" height="6.36" patternUnits="userSpaceOnUse" id="SvgjsPattern1949"><path d="M0 6.36L3.18 0L6.36 6.36" stroke="rgba(226, 161, 120, 1)" fill="none"></path></pattern><clipPath id="SvgjsClipPath1948"><circle r="82.68" cx="11.65" cy="362.83"></circle></clipPath><pattern x="0" y="0" width="6" height="6" patternUnits="userSpaceOnUse" id="SvgjsPattern1951"><path d="M3 1L3 5M1 3L5 3" stroke="rgba(226, 161, 120, 1)" fill="none" stroke-width="1.9"></path></pattern><clipPath id="SvgjsClipPath1950"><circle r="42" cx="1390.73" cy="482.07"></circle></clipPath><pattern x="0" y="0" width="6" height="6" patternUnits="userSpaceOnUse" id="SvgjsPattern1953"><path d="M3 1L3 5M1 3L5 3" stroke="rgba(226, 161, 120, 1)" fill="none" stroke-width="1.6"></path></pattern><clipPath id="SvgjsClipPath1952"><circle r="27" cx="292.88" cy="163.04"></circle></clipPath><pattern x="0" y="0" width="8.56" height="8.56" patternUnits="userSpaceOnUse" id="SvgjsPattern1955"><path d="M0 8.56L4.28 0L8.56 8.56" stroke="rgba(226, 161, 120, 1)" fill="none"></path></pattern><clipPath id="SvgjsClipPath1954"><circle r="21.400000000000002" cx="1079.36" cy="109.7"></circle></clipPath><pattern x="0" y="0" width="13.14" height="13.14" patternUnits="userSpaceOnUse" id="SvgjsPattern1957"><path d="M6.57 1L6.57 12.14M1 6.57L12.14 6.57" stroke="rgba(226, 161, 120, 1)" fill="none" stroke-width="1.87"></path></pattern><clipPath id="SvgjsClipPath1956"><circle r="32.85" cx="1191.32" cy="15.38"></circle></clipPath><pattern x="0" y="0" width="10.94" height="10.94" patternUnits="userSpaceOnUse" id="SvgjsPattern1959"><path d="M5.47 1L5.47 9.94M1 5.47L9.94 5.47" stroke="rgba(226, 161, 120, 1)" fill="none" stroke-width="4.24"></path></pattern><clipPath id="SvgjsClipPath1958"><circle r="27.35" cx="218.43" cy="117.48"></circle></clipPath><pattern x="0" y="0" width="11.44" height="11.44" patternUnits="userSpaceOnUse" id="SvgjsPattern1961"><path d="M0 11.44L5.72 0L11.44 11.44" stroke="rgba(239, 229, 220, 1)" fill="none"></path></pattern><clipPath id="SvgjsClipPath1960"><circle r="57.199999999999996" cx="1135.46" cy="377.73"></circle></clipPath></defs></svg>